<svg width="90" height="28" viewBox="0 0 90 28" fill="none" xmlns="http://www.w3.org/2000/svg">
<path d="M7.87979 6.82812H5.54688V22.3609H7.87979V6.82812Z" fill="#120E16"/>
<path d="M61.6981 6.82812H59.3594V22.3609H61.6981V6.82812Z" fill="#120E16"/>
<path d="M26.3906 6.09375L37.8426 17.8328V6.83853H39.9978V23.0085L28.5488 11.2229V22.3713H26.3906V6.09375Z" fill="#120E16"/>
<path d="M10.3906 6.09375L21.8426 17.8328V6.83853H24.0036V23.0085L12.5488 11.2229V22.3713H10.3906V6.09375Z" fill="#120E16"/>
<path d="M57.9673 14.5966C57.9673 19.2108 54.3179 22.6932 49.821 22.6932C45.3241 22.6932 41.6719 19.2079 41.6719 14.5966C41.6719 9.98535 45.3649 6.5 49.821 6.5C54.2772 6.5 57.9673 10.1454 57.9673 14.5966ZM55.7829 14.5966C55.7829 11.3091 53.3248 8.55979 49.821 8.55979C46.3173 8.55979 43.8562 11.312 43.8562 14.5966C43.8562 17.8812 46.5911 20.6334 49.821 20.6334C53.051 20.6334 55.7829 18.0005 55.7829 14.5966Z" fill="#120E16"/>
<path d="M72.1585 6.82812H74.7157L67.0413 20.4117H74.4478V22.358H63.2812L72.1585 6.82812Z" fill="#120E16"/>
<path d="M86.6449 6.80859H76.125V8.8102H86.6449V6.80859Z" fill="#120E16"/>
</svg>
